<svg width="135" height="135" viewBox="0 0 135 135" fill="none" xmlns="http://www.w3.org/2000/svg">
<path d="M135 67.5C135 104.779 104.779 135 67.5 135C30.2208 135 0 104.779 0 67.5C0 30.2208 30.2208 0 67.5 0C104.779 0 135 30.2208 135 67.5Z" fill="#0f0f10"/>
<path d="M93.0476 48.5143V46.1084H89.2515C81.2247 46.066 73.3619 48.2842 66.6318 52.488C59.9132 48.2457 52.0494 45.9906 44.0111 46H40.215V48.4059H35V88.2753L37.8958 87.0319C44.4535 84.2149 51.7173 83.2769 58.8152 84.3281C60.8363 84.9136 62.7985 85.6734 64.6776 86.5992L65.6053 87.0451L66.6321 87.5448L67.6588 87.0451L68.5865 86.5992C70.4654 85.6734 72.4278 84.9136 74.449 84.3281C81.5468 83.277 88.8107 84.215 95.3683 87.0319L98.2641 88.2753V48.5145L93.0476 48.5143ZM65.6055 84.8287C63.5579 83.837 61.4221 83.0234 59.2234 82.3955C57.1993 82.108 55.1537 81.977 53.1081 82.0043C47.5979 81.9826 42.1454 83.0828 37.1088 85.2342V50.486H40.2725V81.3269L42.3251 81.0431V47.9988H44.0687C51.7452 47.9875 59.256 50.1501 65.6628 54.2162L65.6055 84.8287ZM96.2108 85.2341C91.1574 83.0762 85.6863 81.9751 80.1565 82.0043C78.1089 81.9996 76.0632 82.1532 74.0412 82.4634C71.8426 83.0912 69.7066 83.9048 67.6591 84.8966V54.1908C74.0658 50.1247 81.5757 47.9621 89.2532 47.9744H90.9968L90.9958 81.0452L93.0484 81.329V50.4881H96.1561L96.2108 85.2341Z" fill="#F6F6F6"/>
</svg>
