<svg width="135" height="135" viewBox="0 0 135 135" fill="none" xmlns="http://www.w3.org/2000/svg">
<path d="M135 67.5C135 104.779 104.779 135 67.5 135C30.2208 135 0 104.779 0 67.5C0 30.2208 30.2208 0 67.5 0C104.779 0 135 30.2208 135 67.5Z" fill="#0f0f10"/>
<path d="M66.147 78.5363C65.5058 78.5363 64.9812 77.9998 64.9812 77.344V75.3529H59.9331C59.2918 75.3529 58.7672 74.8164 58.7672 74.1607C58.7672 73.505 59.2918 72.9685 59.9331 72.9685H70.0411C71.5453 72.9685 72.7575 71.7166 72.7575 70.1906C72.7575 68.6646 71.5333 67.4128 70.0411 67.4128H62.2648C59.4782 67.4128 57.2167 65.0996 57.2167 62.2505C57.2167 59.4008 59.4787 57.0882 62.2648 57.0882L64.9812 57.0876V55.0965C64.9812 54.4408 65.5058 53.9043 66.147 53.9043C66.7882 53.9043 67.3129 54.4408 67.3129 55.0965V57.0759H72.361C73.0022 57.0759 73.5268 57.6124 73.5268 58.2681C73.5268 58.9239 73.0022 59.4604 72.361 59.4604H62.2529C60.7488 59.4604 59.5365 60.7122 59.5365 62.2382C59.5365 63.7642 60.7607 65.0161 62.2529 65.0161H70.0293C72.8159 65.0161 75.0774 67.3293 75.0774 70.1784C75.0774 73.028 72.8153 75.3407 70.0293 75.3407L67.3129 75.3412V77.344C67.3129 77.9998 66.7882 78.5363 66.147 78.5363Z" fill="#F6F6F6"/>
<path d="M66.1464 97.6117C50.0696 97.6117 37 84.247 37 67.8059C37 51.3647 50.0691 38 66.1464 38C74.5057 38 82.4804 41.6842 88.006 48.0983C88.4374 48.5869 88.3906 49.3501 87.9008 49.7791C87.423 50.2204 86.6767 50.1725 86.2572 49.6716C81.1743 43.7705 73.8407 40.3845 66.1458 40.3845C51.3627 40.3845 39.331 52.6885 39.331 67.8059C39.331 82.9233 51.3628 95.2273 66.1458 95.2273C73.8404 95.2273 81.162 91.841 86.2572 85.9396C86.6886 85.451 87.423 85.403 87.9008 85.832C88.3786 86.2733 88.4255 87.0243 88.006 87.5129C82.4682 93.9275 74.506 97.6117 66.1464 97.6117V97.6117Z" fill="#F6F6F6"/>
<path d="M105.786 65.4207H87.1327C86.4914 65.4207 85.9668 64.8842 85.9668 64.2285C85.9668 63.5727 86.4914 63.0362 87.1327 63.0362H102.976L97.9746 57.9213C97.5197 57.4562 97.5197 56.7052 97.9746 56.2405C98.4295 55.7753 99.1639 55.7753 99.6183 56.2405L106.613 63.3939C106.952 63.7399 107.045 64.2524 106.87 64.6937C106.684 65.1344 106.252 65.4207 105.786 65.4207H105.786Z" fill="#F6F6F6"/>
<path d="M87.1314 78.5359C86.8285 78.5359 86.537 78.4167 86.3038 78.19L79.3087 71.0366C78.9704 70.6906 78.8772 70.178 79.0521 69.7368C79.2384 69.2844 79.6699 68.998 80.1362 68.998H98.7899C99.4312 68.998 99.9558 69.5346 99.9558 70.1903C99.9558 70.846 99.4312 71.3825 98.7899 71.3825H82.9463L87.948 76.4974C88.4029 76.9626 88.4029 77.7136 87.948 78.1783C87.7263 78.4167 87.4348 78.5359 87.1319 78.5359L87.1314 78.5359Z" fill="#F6F6F6"/>
</svg>
