<svg width="133" height="132" viewBox="0 0 133 132" fill="none" xmlns="http://www.w3.org/2000/svg">
<path d="M132.354 65.8519C132.354 102.221 102.871 131.704 66.5023 131.704C30.1333 131.704 0.650391 102.221 0.650391 65.8519C0.650391 29.4829 30.1333 0 66.5023 0C102.871 0 132.354 29.4829 132.354 65.8519Z" fill="#0f0f10"/>
<path d="M51.0845 71.8744C51.0845 71.1862 50.5398 70.6287 49.8675 70.6287C49.1954 70.6287 48.6504 71.1862 48.6504 71.8744C48.6517 76.8955 50.6013 81.7102 54.0705 85.2605C57.5397 88.8104 62.2442 90.8044 67.1496 90.8044H67.5C72.4121 90.6095 77.0557 88.4614 80.4453 84.8171C83.8348 81.1727 85.7013 76.3191 85.6493 71.2886V65.0767C85.6493 64.4159 85.393 63.7823 84.9362 63.3148C84.4798 62.8477 83.8608 62.5852 83.2152 62.5852H57.3726V53.8002C57.4422 51.2146 58.5102 48.7628 60.3429 46.9814C62.1753 45.2004 64.623 44.2356 67.1495 44.2982C69.676 44.2356 72.1237 45.2005 73.9568 46.9814C75.7895 48.7625 76.8582 51.2146 76.9282 53.8002C76.9282 54.4884 77.4732 55.046 78.1453 55.046C78.8176 55.046 79.3623 54.4884 79.3623 53.8002C79.292 50.5539 77.967 47.4684 75.6778 45.2199C73.3884 42.9717 70.3216 41.7442 67.1495 41.8067C63.9778 41.7449 60.9114 42.9725 58.6222 45.2206C56.3335 47.4688 55.0088 50.5542 54.9384 53.8002V62.5916L51.0842 62.5919C50.4121 62.5919 49.8671 63.1498 49.8671 63.8376C49.8671 64.5255 50.4121 65.0833 51.0842 65.0833H83.2103L83.21 71.2886C83.264 75.6663 81.6486 79.8932 78.7068 83.0713C75.7649 86.2494 71.7286 88.1286 67.455 88.31C64.6019 88.3653 61.7853 87.642 59.2959 86.2138C56.806 84.7855 54.7333 82.7043 53.29 80.1843C51.8468 77.664 51.0858 74.7958 51.0848 71.8747L51.0845 71.8744Z" fill="#F6F6F6"/>
<path d="M67.1504 74.0014C67.8327 74.0014 68.3861 73.5095 68.3861 72.9029C68.3861 72.2961 67.8327 71.8044 67.1504 71.8044C65.957 71.8044 64.8123 72.2259 63.9686 72.9759C63.1245 73.7259 62.6504 74.7435 62.6504 75.8043C62.6504 76.8651 63.1245 77.8826 63.9686 78.6327C64.8123 79.383 65.957 79.8044 67.1504 79.8044C68.3438 79.8044 69.4884 79.383 70.3322 78.6327C71.1763 77.8827 71.6504 76.8651 71.6504 75.8043C71.6504 75.1977 71.097 74.7058 70.4146 74.7058C69.7319 74.7058 69.1789 75.1977 69.1789 75.8043C69.1789 76.2824 68.9651 76.7412 68.5848 77.0793C68.2041 77.4174 67.6883 77.6074 67.1504 77.6074C66.6125 77.6074 66.0967 77.4174 65.7161 77.0793C65.3358 76.7413 65.122 76.2824 65.122 75.8043C65.122 75.3261 65.3358 74.8676 65.7161 74.5296C66.0967 74.1912 66.6125 74.0015 67.1504 74.0015L67.1504 74.0014Z" fill="#F6F6F6"/>
</svg>
